<svg width="500" height="500" viewBox="0 0 500 500" fill="none" xmlns="http://www.w3.org/2000/svg">
<g clip-path="url(#clip0)">
<path d="M270 294.5C246 320.3 138.5 442 113 467.5C108.5 464 125.5 446 134.5 435.5C143.869 424.57 246.984 298.806 296.5 237.5C338.5 185.5 397.315 115.685 403.5 109.5C409.5 103.5 429 82.8889 436 86C440 87.7778 432.5 102 428 111.5C421.231 125.789 330 230 270 294.5Z" fill="white"/>
<path d="M393.5 145.5C388 152 375.5 165 370 167.5C371.5 160 371.5 154.5 388 138C393.803 132.197 403 121.5 410.5 119.5C409 126 399.455 138.462 393.5 145.5Z" fill="black"/>
<path d="M376.877 363.5C340.325 411.224 282.757 442 218 442C107.543 442 18 352.457 18 242C18 131.543 107.543 42 218 42C302.316 42 374.445 94.175 403.864 168L407.5 180.5" stroke="white" stroke-width="5" stroke-linecap="round"/>
<path d="M373.5 367.5C378.5 361.5 383 356.245 385.5 350.026C389.248 340.701 390 327.895 382 322C372.5 315 361.5 316 361 325C360.5 334 371.061 342.77 382 348.5C392.5 354 403.5 358.5 414 352.5C427.5 344.786 426 328.5 405.5 317C385 305.5 367 292.5 363.5 284.5C357.761 271.383 360.183 259.626 367 252.5C378 241 399.5 244.5 407.5 258C415.5 271.5 419 288.5 435 301.5C451 314.5 468 322.5 473.5 319.5C479 316.5 485.5 309 485.5 304.5" stroke="white" stroke-width="5" stroke-linecap="round" stroke-linejoin="bevel"/>
<path d="M91.796 352.509C93.2958 354.569 95.2052 355.658 97.5244 355.775C99.8435 355.892 102.288 355.015 104.858 353.144C107.548 351.186 109.172 349.139 109.73 347.004C110.28 344.86 109.772 342.712 108.207 340.562C107.53 339.632 106.785 338.797 105.971 338.058C105.148 337.327 104.249 336.596 103.275 335.868L106.35 333.629C108.252 334.876 109.997 336.589 111.584 338.769C113.921 341.979 114.745 345.151 114.057 348.283C113.359 351.423 111.2 354.311 107.58 356.946C105.3 358.606 103.003 359.643 100.689 360.058C98.3669 360.463 96.1759 360.207 94.1156 359.289C92.0553 358.372 90.2497 356.848 88.6991 354.718C87.0683 352.478 86.0313 350.065 85.5881 347.481L89.5124 346.598C89.7011 347.593 89.9676 348.6 90.3118 349.619C90.6388 350.636 91.1335 351.599 91.796 352.509Z" fill="white"/>
<path d="M93.5155 313.03L88.1359 318.959L93.0053 328.117L100.902 326.923L103.098 331.051L74.2827 334.877L72.0179 330.618L91.303 308.869L93.5155 313.03ZM85.3098 321.785L79.9829 327.496C79.6331 327.893 79.067 328.488 78.2845 329.282C77.4962 330.065 76.9127 330.628 76.5339 330.969C78.034 330.55 79.7324 330.2 81.629 329.92L89.0207 328.764L85.3098 321.785Z" fill="white"/>
<path d="M72.4856 308.056L71.4321 305.161C70.7256 303.22 69.8534 301.945 68.8154 301.335C67.7774 300.726 66.5494 300.679 65.1312 301.195C63.6899 301.72 62.8267 302.567 62.5417 303.737C62.2567 304.907 62.459 306.439 63.1486 308.334L64.1513 311.089L72.4856 308.056ZM75.9379 306.799L86.1203 303.093L87.637 307.26L62.146 316.538L59.5251 309.337C58.3278 306.048 58.0575 303.388 58.7143 301.359C59.371 299.33 60.9431 297.862 63.4306 296.957C66.6039 295.802 69.4655 296.63 72.0154 299.44L80.6754 288.133L82.4015 292.876L74.4402 302.684L75.9379 306.799Z" fill="white"/>
<path d="M60.6128 263.997C64.8948 262.917 68.4939 263.151 71.4102 264.699C74.3234 266.236 76.2745 268.965 77.2635 272.887C78.2646 276.857 77.8588 280.206 76.0463 282.934C74.2187 285.653 71.1339 287.559 66.792 288.654C62.45 289.749 58.8464 289.522 55.9811 287.974C53.1129 286.414 51.1782 283.649 50.1771 279.679C49.1912 275.768 49.6105 272.448 51.435 269.717C53.2596 266.986 56.3189 265.08 60.6128 263.997ZM65.6757 284.075C68.9141 283.259 71.2081 281.985 72.5577 280.254C73.8953 278.527 74.2404 276.379 73.5932 273.812C72.949 271.258 71.636 269.541 69.6541 268.663C67.6693 267.773 65.0396 267.741 61.7651 268.567C58.5386 269.38 56.2551 270.645 54.9145 272.361C53.5709 274.064 53.2212 276.194 53.8654 278.749C54.5156 281.327 55.8407 283.066 57.8406 283.965C59.8375 284.852 62.4492 284.889 65.6757 284.075Z" fill="white"/>
<path d="M73.6363 255.435L46.52 256.194L46.3959 251.761L69.71 251.109L69.3886 239.628L73.1908 239.521L73.6363 255.435Z" fill="white"/>
<path d="M44.0123 228.183L44.4241 227.91C47.0006 228.599 49.9488 229.726 53.2685 231.291L53.2275 234.445C49.664 233.545 46.5737 232.887 43.9565 232.469L44.0123 228.183Z" fill="white"/>
<path d="M68.9522 206.883C71.3341 207.263 73.0656 208.423 74.1466 210.361C75.2276 212.3 75.5264 214.784 75.0429 217.814C74.5594 220.843 73.6934 223.248 72.4448 225.027L68.3039 224.367C69.0729 223.237 69.7315 222.014 70.2797 220.699C70.8298 219.371 71.1994 218.115 71.3885 216.93C71.6653 215.195 71.5392 213.866 71.0102 212.942C70.4832 212.006 69.6639 211.45 68.5523 211.272C67.5506 211.112 66.6412 211.356 65.8241 212.002C65.007 212.648 63.9329 214.08 62.6019 216.298C61.2226 218.583 59.8178 220.125 58.3875 220.924C56.9573 221.723 55.3505 221.98 53.5671 221.695C51.3317 221.338 49.6994 220.264 48.6702 218.471C47.6411 216.678 47.34 214.444 47.7669 211.769C48.1763 209.204 49.1457 206.741 50.675 204.379L54.0257 206.342C52.6439 208.564 51.8038 210.61 51.5055 212.479C51.2794 213.896 51.4193 215.02 51.9253 215.853C52.4191 216.683 53.173 217.179 54.1868 217.341C54.8831 217.452 55.505 217.401 56.0526 217.188C56.588 216.973 57.1292 216.564 57.6762 215.963C58.2232 215.361 58.9964 214.244 59.9959 212.612C61.1281 210.776 62.1216 209.457 62.9763 208.654C63.831 207.851 64.7383 207.307 65.6983 207.021C66.6582 206.736 67.7428 206.69 68.9522 206.883Z" fill="white"/>
<path d="M93.5089 170.509L85.6384 169.045L80.4032 177.999L85.5672 184.092L83.2072 188.129L64.8158 165.619L67.2508 161.454L95.8877 166.44L93.5089 170.509ZM81.7487 168.125L74.0906 166.592C73.5698 166.503 72.7659 166.334 71.679 166.085C70.5983 165.826 69.8132 165.625 69.3236 165.482C70.4685 166.538 71.6581 167.799 72.8925 169.266L77.7591 174.949L81.7487 168.125Z" fill="white"/>
<path d="M97.9721 162.895L76.4618 146.367L79.1637 142.85L97.6578 157.061L104.656 147.953L107.672 150.271L97.9721 162.895Z" fill="white"/>
<path d="M116.251 140.051L113.158 143.228L96.4448 126.96L90.8799 132.678L88.1542 130.025L102.377 115.412L105.103 118.065L99.5379 123.783L116.251 140.051Z" fill="white"/>
<path d="M138.6 120.898L126.45 130.271L109.881 108.793L122.03 99.4199L124.32 102.388L115.681 109.052L120.192 114.899L128.287 108.654L130.553 111.592L122.459 117.837L127.661 124.58L136.299 117.916L138.6 120.898Z" fill="white"/>
<path d="M143.079 101.104L145.894 99.8537C147.782 99.0152 148.994 98.0571 149.53 96.9796C150.067 95.9021 150.029 94.6738 149.416 93.2946C148.794 91.8928 147.889 91.0901 146.702 90.8864C145.515 90.6826 144.001 90.99 142.158 91.8085L139.479 92.9986L143.079 101.104ZM144.57 104.462L148.969 114.365L144.916 116.165L133.904 91.3734L140.908 88.2627C144.107 86.8416 146.741 86.3888 148.811 86.9041C150.881 87.4195 152.453 88.8868 153.528 91.3061C154.898 94.3922 154.27 97.3041 151.642 100.041L163.518 107.902L158.906 109.951L148.572 102.684L144.57 104.462Z" fill="white"/>
<path d="M185.401 102.038L180.82 95.4729L170.807 98.1791L170.211 106.144L165.698 107.364L168.389 78.4207L173.046 77.162L189.95 100.809L185.401 102.038ZM178.694 92.088L174.314 85.6223C174.005 85.193 173.551 84.5085 172.951 83.5687C172.363 82.6256 171.945 81.9314 171.696 81.486C171.771 83.042 171.733 84.7756 171.584 86.6868L171.064 94.1503L178.694 92.088Z" fill="white"/>
<path d="M201.669 98.7781L197.265 99.298L194.53 76.1356L186.607 77.0709L186.161 73.2935L206.412 70.9029L206.858 74.6803L198.934 75.6157L201.669 98.7781Z" fill="white"/>
<path d="M216.843 99.053L216.67 71.9266L221.104 71.8983L221.278 99.0247L216.843 99.053Z" fill="white"/>
<path d="M254.515 88.6328C253.964 93.0144 252.438 96.2824 249.936 98.4366C247.446 100.592 244.195 101.418 240.181 100.914C236.119 100.404 233.146 98.8092 231.264 96.1293C229.395 93.4386 228.739 89.8718 229.297 85.4288C229.855 80.9858 231.376 77.711 233.86 75.6043C236.356 73.4991 239.635 72.7016 243.697 73.2118C247.699 73.7142 250.64 75.3115 252.521 78.0037C254.402 80.6959 255.066 84.239 254.515 88.6328ZM233.969 86.0528C233.553 89.3667 233.906 91.9667 235.028 93.853C236.151 95.727 238.026 96.8289 240.653 97.1587C243.267 97.487 245.343 96.8875 246.882 95.3602C248.432 93.8345 249.418 91.3963 249.838 88.0456C250.253 84.7441 249.905 82.1571 248.793 80.2846C247.694 78.4137 245.838 77.3141 243.223 76.9858C240.585 76.6545 238.483 77.257 236.919 78.7935C235.367 80.3315 234.383 82.7513 233.969 86.0528Z" fill="white"/>
<path d="M277.253 110.252L272.163 108.345L267.256 83.4213L267.117 83.3692L266.781 84.5311C266.136 86.7463 265.479 88.7458 264.81 90.5296L259.861 103.734L256.091 102.321L265.611 76.9196L270.65 78.808L275.56 103.614L275.665 103.653C275.741 103.378 276.057 102.393 276.613 100.699C277.173 98.9939 277.629 97.672 277.98 96.7337L282.968 83.4249L286.773 84.851L277.253 110.252Z" fill="white"/>
<path d="M300.344 113.661C299.282 115.827 297.666 117.143 295.496 117.608C293.326 118.073 290.863 117.631 288.108 116.281C285.354 114.931 283.309 113.398 281.973 111.682L283.818 107.917C284.673 108.984 285.649 109.972 286.746 110.881C287.854 111.796 288.947 112.518 290.025 113.046C291.602 113.819 292.91 114.088 293.948 113.853C294.997 113.623 295.769 113.003 296.265 111.993C296.711 111.082 296.745 110.141 296.367 109.17C295.989 108.2 294.934 106.753 293.204 104.831C291.424 102.842 290.361 101.047 290.016 99.4454C289.672 97.8438 289.897 96.2322 290.692 94.6105C291.688 92.5778 293.194 91.3323 295.21 90.8737C297.225 90.4152 299.449 90.7821 301.882 91.9743C304.214 93.1176 306.285 94.7664 308.095 96.9206L305.236 99.5489C303.517 97.5765 301.807 96.1738 300.108 95.3408C298.819 94.7093 297.703 94.5135 296.759 94.7533C295.82 94.982 295.125 95.5573 294.673 96.4792C294.363 97.1124 294.229 97.7219 294.273 98.308C294.322 98.883 294.553 99.5201 294.968 100.219C295.383 100.919 296.224 101.985 297.491 103.419C298.915 105.04 299.885 106.376 300.403 107.429C300.92 108.481 301.174 109.508 301.166 110.51C301.157 111.511 300.883 112.562 300.344 113.661Z" fill="white"/>
</g>
<defs>
<clipPath id="clip0">
<rect width="500" height="500" fill="white"/>
</clipPath>
</defs>
</svg>
